<svg xmlns="http://www.w3.org/2000/svg" xmlns:xlink="http://www.w3.org/1999/xlink" viewBox="0 0 512 512"> 
  <path fill="#4ecdc4" d="m256,6c-138.1,0 -250,111.9 -250,250s111.9,250 250,250s250,-111.9 250,-250s-111.9,-250 -250,-250zm115.3,313.2c0,25.5 -20.7,46.2 -46.2,46.2l-172.9,0c-25.5,0 -46.2,-20.7 -46.2,-46.2l0,-126.4c0,-25.5 20.7,-46.2 46.2,-46.2l156.1,0c2.6,0 4.8,2.2 4.8,4.8s-2.1,4.8 -4.8,4.8l-156.1,0c-20.1,0 -36.5,16.4 -36.5,36.5l0,126.4c0,20.1 16.4,36.5 36.5,36.5l172.9,0c20.1,0 36.5,-16.4 36.5,-36.5l0,-63.2c0,-2.6 2.1,-4.8 4.8,-4.8s4.9,2.1 4.9,4.8l0,63.3l0,0zm32.8,-152.3l-171.1,128.3l-44.1,-88.4c-1.2,-2.4 -0.2,-5.3 2.2,-6.5s5.3,-0.2 6.5,2.2l38.9,78l161.8,-121.4c2.1,-1.6 5.2,-1.2 6.8,1s1.2,5.2 -1,6.8z" class="st4"/>
</svg>